<svg width="20" height="20" viewBox="0 0 20 20" xmlns="http://www.w3.org/2000/svg" xmlns:xlink="http://www.w3.org/1999/xlink"><title>icon-facebook</title><defs><path id="a" d="M19.76 0v19.76H0V0h19.76z"/></defs><g fill="none" fill-rule="evenodd"><mask id="b" fill="#fff"><use xlink:href="#a"/></mask><path d="M18.67 0H1.09A1.09 1.09 0 0 0 0 1.09v17.58c0 .602.488 1.09 1.09 1.09h9.464v-7.652H7.98V9.126h2.575v-2.2c0-2.552 1.56-3.942 3.836-3.942 1.09 0 2.028.082 2.301.118v2.667h-1.579c-1.238 0-1.478.59-1.478 1.453v1.904h2.953l-.384 2.982h-2.569v7.652h5.035a1.09 1.09 0 0 0 1.091-1.09V1.09A1.09 1.09 0 0 0 18.67 0" fill="#231F1F" mask="url(#b)"/></g></svg>