<?xml version="1.0" encoding="UTF-8"?>
<svg width="20px" height="20px" viewBox="0 0 20 20" version="1.1" xmlns="http://www.w3.org/2000/svg" xmlns:xlink="http://www.w3.org/1999/xlink">
    <!-- Generator: Sketch 42 (36781) - http://www.bohemiancoding.com/sketch -->
    <title>icon-facebook</title>
    <desc>Created with Sketch.</desc>
    <defs>
        <polygon id="path-1" points="19.76 -5.88235294e-05 19.76 19.7601765 5.88235294e-05 19.7601765 5.88235294e-05 -5.88235294e-05 19.76 -5.88235294e-05"></polygon>
    </defs>
    <g id="Page-1" stroke="none" stroke-width="1" fill="none" fill-rule="evenodd">
        <g id="tom-sawyer-page-Desktop-HD" transform="translate(-620.000000, -2467.000000)">
            <g id="footer" transform="translate(439.000000, 2320.000000)">
                <g id="social-media-icons---footer" transform="translate(181.000000, 147.000000)">
                    <g id="icon-facebook">
                        <g>
                            <mask id="mask-2" fill="white">
                                <use xlink:href="#path-1"></use>
                            </mask>
                            <g id="Clip-2"></g>
                            <path d="M18.6694706,-5.88235294e-05 L1.09064706,-5.88235294e-05 C0.488294118,-5.88235294e-05 5.88235294e-05,0.488176471 5.88235294e-05,1.09052941 L5.88235294e-05,18.6696471 C5.88235294e-05,19.2717059 0.488294118,19.7602353 1.09064706,19.7602353 L10.5544706,19.7602353 L10.5544706,12.1078824 L7.97947059,12.1078824 L7.97947059,9.12582353 L10.5544706,9.12582353 L10.5544706,6.92641176 C10.5544706,4.37435294 12.1132941,2.98435294 14.3900588,2.98435294 C15.4806471,2.98435294 16.418,3.06552941 16.6912353,3.102 L16.6912353,5.76935294 L15.1121176,5.76994118 C13.8738824,5.76994118 13.6341765,6.35847059 13.6341765,7.22170588 L13.6341765,9.12582353 L16.5871176,9.12582353 L16.2027059,12.1078824 L13.6341765,12.1078824 L13.6341765,19.7602353 L18.6694706,19.7602353 C19.2718235,19.7602353 19.7600588,19.2717059 19.7600588,18.6696471 L19.7600588,1.09052941 C19.7600588,0.488176471 19.2718235,-5.88235294e-05 18.6694706,-5.88235294e-05" id="Fill-1" fill="#231F1F" mask="url(#mask-2)"></path>
                        </g>
                    </g>
                </g>
            </g>
        </g>
    </g>
</svg>